<svg data-v-2cb57da0="" version="1.0" xmlns="http://www.w3.org/2000/svg" xmlns:xlink="http://www.w3.org/1999/xlink"
    width="100%" height="100%" viewBox="0 0 140.000000 70.000000" preserveAspectRatio="xMidYMid meet"
    color-interpolation-filters="sRGB" style="margin: auto;">
    <!-- <rect data-v-2cb57da0="" x="0" y="0" width="100%" height="100%" fill="rgba(0,0,0,.1)" fill-opacity="1"
        class="watermarklayer"></rect> -->
    <g class="test-name" transform="translate(10, 10)">
        <g transform="scale(1)">
        <g transform="translate(0, 0)">
            <g class="name-imagesvg">
                <g>
                    <rect fill="#333" fill-opacity="0" stroke-width="2" x="0" y="0" width="36" height="50"
                        class="image-rect"></rect> <svg x="0" y="0" width="36" height="50" filtersec="colorsb7570070644"
                        class="image-svg-svg primary" style="overflow: visible;"><svg xmlns="http://www.w3.org/2000/svg"
                            viewBox="0 0 130 180">
                            <g fill="#F35A5A">
                                <path opacity=".8" d="M0 70h130v40H0z"></path>
                                <path opacity=".8" d="M90 0h40v180H90zM0 0h40v180H0z"></path>
                            </g>
                        </svg></svg>
                    <!---->
                </g>
            </g>
        </g>
        <g transform="translate(36, 0)">
            <g class="name-imagesvg">
                <g>
                    <rect fill="#333" fill-opacity="0" stroke-width="2" x="0" y="0" width="36" height="50"
                        class="image-rect"></rect> <svg x="6" y="0" width="36" height="50" filtersec="colorsb8478330008"
                        class="image-svg-svg primary" style="overflow: visible;">
                        <svg xmlns="http://www.w3.org/2000/svg" viewBox="0 0 130 180">
                            <g fill="#00bfd7">
                                <path opacity=".8" d="M90 0v110l40-40V0H90zM0 0v70l40 40V0H0z"></path>
                                <path opacity=".8" d="M0 70h130l-40 40H40L0 70z"></path>
                                <path opacity=".8" d="M45 70h40v110H45z"></path>
                            </g>
                        </svg>
                    </svg>
                    <!---->
                </g>
            </g>
        </g>
        <g transform="translate(72, 0)">
            <g class="name-imagesvg">
                <g>
                    <rect fill="#333" fill-opacity="0" stroke-width="2" x="0" y="0" width="36" height="50"
                        class="image-rect"></rect> <svg x="12" y="0" width="36" height="50" filtersec="colorsb2503900701"
                        class="image-svg-svg primary" style="overflow: visible;">
                        <svg xmlns="http://www.w3.org/2000/svg" viewBox="0 0 130 180">
                            <g fill="#bfd72f">
                                <path opacity=".8" d="M0 70h90v40H0zM130 110v70H90V70l40 40z"></path>
                                <path opacity=".8" d="M90 0v110l40-40V0H90zM0 0h40v180H0z"></path>
                            </g>
                        </svg>
                    </svg>
                    <!---->
                </g>
            </g>
        </g>
    </g>
    </g>
    <defs v-gra="od"></defs>
</svg>